<svg xmlns="http://www.w3.org/2000/svg" xmlns:xlink="http://www.w3.org/1999/xlink" width="500" zoomAndPan="magnify" viewBox="0 0 375 112.499997" height="150" preserveAspectRatio="xMidYMid meet" version="1.0"><defs><g/><clipPath id="a17df46c44"><path d="M 6 15 L 118.832031 15 L 118.832031 100.570312 L 6 100.570312 Z M 6 15 " clip-rule="nonzero"/></clipPath></defs><g fill="#2b2b2b" fill-opacity="1"><g transform="translate(130.640281, 88.246599)"><g><path d="M 6.359375 -14 C 7.984375 -14 9.234375 -13.644531 10.109375 -12.9375 C 10.984375 -12.226562 11.421875 -11.242188 11.421875 -9.984375 C 11.421875 -8.515625 10.976562 -7.445312 10.09375 -6.78125 C 9.21875 -6.125 7.84375 -5.796875 5.96875 -5.796875 L 4.046875 -5.796875 L 4.046875 0 L 1.5625 0 L 1.5625 -14 Z M 5.671875 -7.921875 C 6.828125 -7.921875 7.640625 -8.085938 8.109375 -8.421875 C 8.578125 -8.753906 8.8125 -9.25 8.8125 -9.90625 C 8.8125 -11.207031 7.84375 -11.859375 5.90625 -11.859375 L 4.046875 -11.859375 L 4.046875 -7.921875 Z M 5.671875 -7.921875 "/></g></g></g><g fill="#2b2b2b" fill-opacity="1"><g transform="translate(152.684619, 88.246599)"><g><path d="M 3.71875 -9.484375 L 3.71875 -4.578125 C 3.71875 -3.628906 3.859375 -2.941406 4.140625 -2.515625 C 4.429688 -2.097656 4.867188 -1.890625 5.453125 -1.890625 C 6.160156 -1.890625 6.695312 -2.109375 7.0625 -2.546875 C 7.4375 -2.984375 7.625 -3.570312 7.625 -4.3125 L 7.625 -9.484375 L 10 -9.484375 L 10 0 L 7.75 0 L 7.75 -1.515625 L 7.703125 -1.515625 C 7.148438 -0.347656 6.179688 0.234375 4.796875 0.234375 C 3.734375 0.234375 2.890625 -0.0820312 2.265625 -0.71875 C 1.648438 -1.363281 1.34375 -2.265625 1.34375 -3.421875 L 1.34375 -9.484375 Z M 3.71875 -9.484375 "/></g></g></g><g fill="#2b2b2b" fill-opacity="1"><g transform="translate(173.997544, 88.246599)"><g><path d="M 6.5625 -9.71875 C 6.757812 -9.71875 7.039062 -9.675781 7.40625 -9.59375 L 7.40625 -7.296875 C 7 -7.410156 6.617188 -7.46875 6.265625 -7.46875 C 5.484375 -7.46875 4.863281 -7.238281 4.40625 -6.78125 C 3.945312 -6.320312 3.71875 -5.707031 3.71875 -4.9375 L 3.71875 0 L 1.34375 0 L 1.34375 -9.484375 L 3.71875 -9.484375 L 3.71875 -7.984375 L 3.75 -7.984375 C 4.019531 -8.535156 4.394531 -8.960938 4.875 -9.265625 C 5.363281 -9.566406 5.925781 -9.71875 6.5625 -9.71875 Z M 6.5625 -9.71875 "/></g></g></g><g fill="#2b2b2b" fill-opacity="1"><g transform="translate(191.65343, 88.246599)"><g><path d="M 5.359375 -9.71875 C 6.710938 -9.71875 7.722656 -9.390625 8.390625 -8.734375 C 9.066406 -8.085938 9.40625 -7.066406 9.40625 -5.671875 L 9.40625 0 L 7.28125 0 L 7.28125 -1.296875 L 7.21875 -1.296875 C 6.570312 -0.273438 5.554688 0.234375 4.171875 0.234375 C 3.140625 0.234375 2.304688 -0.03125 1.671875 -0.5625 C 1.035156 -1.09375 0.71875 -1.773438 0.71875 -2.609375 C 0.71875 -3.710938 1.175781 -4.535156 2.09375 -5.078125 C 3.019531 -5.628906 4.503906 -5.90625 6.546875 -5.90625 L 7.28125 -5.90625 L 7.28125 -6.1875 C 7.28125 -6.738281 7.082031 -7.171875 6.6875 -7.484375 C 6.289062 -7.796875 5.757812 -7.953125 5.09375 -7.953125 C 4.125 -7.953125 3.28125 -7.617188 2.5625 -6.953125 L 1.328125 -8.203125 C 2.316406 -9.210938 3.660156 -9.71875 5.359375 -9.71875 Z M 3.078125 -2.78125 C 3.078125 -2.375 3.242188 -2.066406 3.578125 -1.859375 C 3.921875 -1.648438 4.316406 -1.546875 4.765625 -1.546875 C 5.578125 -1.546875 6.175781 -1.742188 6.5625 -2.140625 C 6.945312 -2.546875 7.140625 -3.050781 7.140625 -3.65625 L 7.140625 -4.25 L 6.4375 -4.25 C 4.195312 -4.25 3.078125 -3.757812 3.078125 -2.78125 Z M 3.078125 -2.78125 "/></g></g></g><g fill="#2b2b2b" fill-opacity="1"><g transform="translate(212.23494, 88.246599)"><g><path d="M 6.546875 -9.71875 C 7.617188 -9.71875 8.460938 -9.394531 9.078125 -8.75 C 9.691406 -8.101562 10 -7.207031 10 -6.0625 L 10 0 L 7.625 0 L 7.625 -4.921875 C 7.625 -6.703125 7.046875 -7.59375 5.890625 -7.59375 C 5.210938 -7.59375 4.679688 -7.375 4.296875 -6.9375 C 3.910156 -6.5 3.71875 -5.925781 3.71875 -5.21875 L 3.71875 0 L 1.34375 0 L 1.34375 -9.484375 L 3.59375 -9.484375 L 3.59375 -7.96875 L 3.640625 -7.96875 C 4.179688 -9.132812 5.148438 -9.71875 6.546875 -9.71875 Z M 6.546875 -9.71875 "/></g></g></g><g fill="#2b2b2b" fill-opacity="1"><g transform="translate(233.547868, 88.246599)"><g><path d="M 6.03125 -9.71875 C 7.476562 -9.71875 8.695312 -9.253906 9.6875 -8.328125 C 10.6875 -7.410156 11.1875 -6.21875 11.1875 -4.75 C 11.1875 -3.269531 10.6875 -2.066406 9.6875 -1.140625 C 8.695312 -0.222656 7.476562 0.234375 6.03125 0.234375 C 4.582031 0.234375 3.359375 -0.222656 2.359375 -1.140625 C 1.367188 -2.066406 0.875 -3.269531 0.875 -4.75 C 0.875 -6.21875 1.367188 -7.410156 2.359375 -8.328125 C 3.359375 -9.253906 4.582031 -9.71875 6.03125 -9.71875 Z M 3.234375 -4.75 C 3.234375 -3.90625 3.5 -3.21875 4.03125 -2.6875 C 4.570312 -2.15625 5.238281 -1.890625 6.03125 -1.890625 C 6.832031 -1.890625 7.492188 -2.15625 8.015625 -2.6875 C 8.546875 -3.226562 8.8125 -3.914062 8.8125 -4.75 C 8.8125 -5.59375 8.546875 -6.273438 8.015625 -6.796875 C 7.484375 -7.328125 6.816406 -7.59375 6.015625 -7.59375 C 5.234375 -7.59375 4.570312 -7.320312 4.03125 -6.78125 C 3.5 -6.238281 3.234375 -5.5625 3.234375 -4.75 Z M 3.234375 -4.75 "/></g></g></g><g fill="#2b2b2b" fill-opacity="1"><g transform="translate(255.572435, 88.246599)"><g/></g></g><g fill="#2b2b2b" fill-opacity="1"><g transform="translate(271.389909, 88.246599)"><g><path d="M 4.578125 -9.71875 C 6.140625 -9.71875 7.273438 -9.238281 7.984375 -8.28125 L 6.40625 -6.859375 C 5.925781 -7.503906 5.304688 -7.828125 4.546875 -7.828125 C 4.160156 -7.828125 3.832031 -7.734375 3.5625 -7.546875 C 3.289062 -7.367188 3.15625 -7.125 3.15625 -6.8125 C 3.15625 -6.351562 3.625 -6.023438 4.5625 -5.828125 L 5.421875 -5.640625 C 6.460938 -5.410156 7.195312 -5.0625 7.625 -4.59375 C 8.0625 -4.125 8.28125 -3.53125 8.28125 -2.8125 C 8.28125 -1.882812 7.910156 -1.144531 7.171875 -0.59375 C 6.429688 -0.0390625 5.429688 0.234375 4.171875 0.234375 C 2.578125 0.234375 1.351562 -0.25 0.5 -1.21875 L 2.078125 -2.703125 C 2.484375 -2.253906 2.859375 -1.945312 3.203125 -1.78125 C 3.546875 -1.625 3.921875 -1.546875 4.328125 -1.546875 C 4.765625 -1.546875 5.132812 -1.644531 5.4375 -1.84375 C 5.75 -2.039062 5.90625 -2.300781 5.90625 -2.625 C 5.90625 -3.164062 5.421875 -3.550781 4.453125 -3.78125 C 3.179688 -4.0625 2.382812 -4.285156 2.0625 -4.453125 C 1.75 -4.617188 1.5 -4.816406 1.3125 -5.046875 C 1.125 -5.273438 0.988281 -5.523438 0.90625 -5.796875 C 0.832031 -6.066406 0.796875 -6.351562 0.796875 -6.65625 C 0.796875 -7.59375 1.148438 -8.335938 1.859375 -8.890625 C 2.578125 -9.441406 3.484375 -9.71875 4.578125 -9.71875 Z M 4.578125 -9.71875 "/></g></g></g><g fill="#2b2b2b" fill-opacity="1"><g transform="translate(290.133024, 88.246599)"><g><path d="M 5.359375 -9.71875 C 6.710938 -9.71875 7.722656 -9.390625 8.390625 -8.734375 C 9.066406 -8.085938 9.40625 -7.066406 9.40625 -5.671875 L 9.40625 0 L 7.28125 0 L 7.28125 -1.296875 L 7.21875 -1.296875 C 6.570312 -0.273438 5.554688 0.234375 4.171875 0.234375 C 3.140625 0.234375 2.304688 -0.03125 1.671875 -0.5625 C 1.035156 -1.09375 0.71875 -1.773438 0.71875 -2.609375 C 0.71875 -3.710938 1.175781 -4.535156 2.09375 -5.078125 C 3.019531 -5.628906 4.503906 -5.90625 6.546875 -5.90625 L 7.28125 -5.90625 L 7.28125 -6.1875 C 7.28125 -6.738281 7.082031 -7.171875 6.6875 -7.484375 C 6.289062 -7.796875 5.757812 -7.953125 5.09375 -7.953125 C 4.125 -7.953125 3.28125 -7.617188 2.5625 -6.953125 L 1.328125 -8.203125 C 2.316406 -9.210938 3.660156 -9.71875 5.359375 -9.71875 Z M 3.078125 -2.78125 C 3.078125 -2.375 3.242188 -2.066406 3.578125 -1.859375 C 3.921875 -1.648438 4.316406 -1.546875 4.765625 -1.546875 C 5.578125 -1.546875 6.175781 -1.742188 6.5625 -2.140625 C 6.945312 -2.546875 7.140625 -3.050781 7.140625 -3.65625 L 7.140625 -4.25 L 6.4375 -4.25 C 4.195312 -4.25 3.078125 -3.757812 3.078125 -2.78125 Z M 3.078125 -2.78125 "/></g></g></g><g fill="#2b2b2b" fill-opacity="1"><g transform="translate(310.714538, 88.246599)"><g><path d="M 6.4375 -9.71875 C 7.925781 -9.71875 8.914062 -9.132812 9.40625 -7.96875 C 10.0625 -9.132812 11.101562 -9.71875 12.53125 -9.71875 C 14.8125 -9.71875 15.953125 -8.34375 15.953125 -5.59375 L 15.953125 0 L 13.578125 0 L 13.578125 -5.4375 C 13.578125 -6.875 12.988281 -7.59375 11.8125 -7.59375 C 11.1875 -7.59375 10.691406 -7.378906 10.328125 -6.953125 C 9.960938 -6.523438 9.78125 -5.921875 9.78125 -5.140625 L 9.78125 0 L 7.40625 0 L 7.40625 -5.71875 C 7.40625 -6.3125 7.265625 -6.769531 6.984375 -7.09375 C 6.710938 -7.425781 6.316406 -7.59375 5.796875 -7.59375 C 5.054688 -7.59375 4.503906 -7.359375 4.140625 -6.890625 C 3.785156 -6.429688 3.609375 -5.859375 3.609375 -5.171875 L 3.609375 0 L 1.25 0 L 1.25 -9.484375 L 3.5 -9.484375 L 3.5 -8 L 3.53125 -8 C 4.09375 -9.144531 5.0625 -9.71875 6.4375 -9.71875 Z M 6.4375 -9.71875 "/></g></g></g><g fill="#2b2b2b" fill-opacity="1"><g transform="translate(337.878732, 88.246599)"><g><path d="M 5.359375 -9.71875 C 6.710938 -9.71875 7.722656 -9.390625 8.390625 -8.734375 C 9.066406 -8.085938 9.40625 -7.066406 9.40625 -5.671875 L 9.40625 0 L 7.28125 0 L 7.28125 -1.296875 L 7.21875 -1.296875 C 6.570312 -0.273438 5.554688 0.234375 4.171875 0.234375 C 3.140625 0.234375 2.304688 -0.03125 1.671875 -0.5625 C 1.035156 -1.09375 0.71875 -1.773438 0.71875 -2.609375 C 0.71875 -3.710938 1.175781 -4.535156 2.09375 -5.078125 C 3.019531 -5.628906 4.503906 -5.90625 6.546875 -5.90625 L 7.28125 -5.90625 L 7.28125 -6.1875 C 7.28125 -6.738281 7.082031 -7.171875 6.6875 -7.484375 C 6.289062 -7.796875 5.757812 -7.953125 5.09375 -7.953125 C 4.125 -7.953125 3.28125 -7.617188 2.5625 -6.953125 L 1.328125 -8.203125 C 2.316406 -9.210938 3.660156 -9.71875 5.359375 -9.71875 Z M 3.078125 -2.78125 C 3.078125 -2.375 3.242188 -2.066406 3.578125 -1.859375 C 3.921875 -1.648438 4.316406 -1.546875 4.765625 -1.546875 C 5.578125 -1.546875 6.175781 -1.742188 6.5625 -2.140625 C 6.945312 -2.546875 7.140625 -3.050781 7.140625 -3.65625 L 7.140625 -4.25 L 6.4375 -4.25 C 4.195312 -4.25 3.078125 -3.757812 3.078125 -2.78125 Z M 3.078125 -2.78125 "/></g></g></g><g fill="#2b2b2b" fill-opacity="1"><g transform="translate(358.460246, 88.246599)"><g><path d="M 6.546875 -9.71875 C 7.617188 -9.71875 8.460938 -9.394531 9.078125 -8.75 C 9.691406 -8.101562 10 -7.207031 10 -6.0625 L 10 0 L 7.625 0 L 7.625 -4.921875 C 7.625 -6.703125 7.046875 -7.59375 5.890625 -7.59375 C 5.210938 -7.59375 4.679688 -7.375 4.296875 -6.9375 C 3.910156 -6.5 3.71875 -5.925781 3.71875 -5.21875 L 3.71875 0 L 1.34375 0 L 1.34375 -9.484375 L 3.59375 -9.484375 L 3.59375 -7.96875 L 3.640625 -7.96875 C 4.179688 -9.132812 5.148438 -9.71875 6.546875 -9.71875 Z M 6.546875 -9.71875 "/></g></g></g><g fill="#000000" fill-opacity="1"><g transform="translate(124.331332, 66.685797)"><g><path d="M 15.859375 0.136719 L 22.375 0.046875 L 23.332031 -0.363281 L 23.832031 -1.320312 L 23.832031 -5.925781 L 23.332031 -6.835938 L 22.375 -7.246094 L 21.324219 -7.152344 L 20.460938 -7.289062 L 18.136719 -7.335938 L 16.632812 -7.152344 L 15.722656 -7.246094 L 14.71875 -7.199219 L 13.851562 -7.335938 L 12.851562 -7.246094 L 11.894531 -7.699219 L 11.527344 -8.519531 L 11.527344 -11.390625 L 11.9375 -12.347656 L 12.757812 -12.851562 L 14.125 -12.894531 L 15.585938 -12.757812 L 17.316406 -12.851562 L 19.183594 -12.804688 L 20.09375 -12.894531 L 21.144531 -12.851562 L 22.054688 -13.214844 L 22.375 -14.125 L 22.511719 -18.226562 L 22.054688 -19.503906 L 21.007812 -20.09375 L 18.316406 -20.09375 L 17.363281 -20.003906 L 15.449219 -20.140625 L 12.804688 -20.050781 L 11.847656 -20.460938 L 11.484375 -21.871094 L 11.484375 -23.285156 L 11.894531 -24.152344 L 12.894531 -24.515625 L 13.761719 -24.46875 L 14.628906 -24.652344 L 21.144531 -24.5625 L 22.007812 -24.605469 L 22.964844 -25.152344 L 23.421875 -25.972656 L 23.375 -26.886719 L 23.421875 -27.796875 L 23.332031 -30.53125 L 22.921875 -31.394531 L 22.007812 -31.761719 L 21.050781 -31.761719 L 20.230469 -31.941406 L 16.542969 -31.898438 L 15.539062 -31.804688 L 14.628906 -31.898438 L 13.851562 -31.851562 L 12.941406 -31.941406 L 9.203125 -31.851562 L 8.292969 -31.988281 L 7.425781 -31.804688 L 6.605469 -31.898438 L 5.695312 -31.804688 L 4.785156 -31.851562 L 3.828125 -31.488281 L 3.328125 -30.53125 L 3.417969 -28.800781 L 3.28125 -26.929688 L 3.417969 -25.929688 L 3.328125 -21.460938 L 3.464844 -20.503906 L 3.371094 -19.640625 L 3.328125 -15.902344 L 3.464844 -15.082031 L 3.417969 -7.699219 L 3.328125 -6.835938 L 3.464844 -5.925781 L 3.328125 -2.78125 L 3.417969 -1.777344 L 3.78125 -0.546875 L 5.148438 0.046875 L 8.429688 0.0898438 L 9.433594 0 L 10.253906 0.046875 L 12.121094 -0.0898438 L 12.988281 0.0898438 L 14.035156 0.136719 L 14.945312 0.046875 Z M 15.859375 0.136719 "/></g></g></g><g fill="#000000" fill-opacity="1"><g transform="translate(162.464279, 66.685797)"><g><path d="M 15.859375 0.363281 L 18.136719 0.546875 L 21.324219 0.320312 L 24.015625 -0.226562 L 24.835938 -0.683594 L 25.792969 -1.003906 L 26.566406 -1.367188 L 28.800781 -2.960938 L 30.074219 -4.238281 L 31.121094 -5.605469 L 32.078125 -7.246094 L 33.265625 -10.707031 L 32.992188 -11.527344 L 32.078125 -12.121094 L 29.527344 -11.9375 L 28.617188 -12.074219 L 27.707031 -12.03125 L 26.792969 -12.074219 L 25.746094 -11.527344 L 25.015625 -10.800781 L 24.5625 -9.933594 L 23.511719 -8.75 L 22.785156 -8.109375 L 22.101562 -7.835938 L 20.503906 -6.972656 L 18.089844 -6.835938 L 16.769531 -6.972656 L 15.128906 -7.5625 L 13.535156 -8.382812 L 12.210938 -9.570312 L 11.210938 -11.164062 L 10.890625 -12.074219 L 10.570312 -12.714844 L 10.34375 -13.535156 L 10.207031 -14.535156 L 10.207031 -17.316406 L 10.527344 -19.136719 L 11.210938 -20.777344 L 11.664062 -21.644531 L 12.757812 -22.921875 L 13.851562 -23.785156 L 15.082031 -24.46875 L 18.136719 -24.878906 L 20.09375 -24.789062 L 21.507812 -24.378906 L 22.328125 -24.058594 L 22.964844 -23.558594 L 24.289062 -22.238281 L 24.789062 -21.554688 L 25.65625 -20.6875 L 26.703125 -20.1875 L 27.523438 -20.277344 L 28.480469 -20.230469 L 29.390625 -20.277344 L 30.667969 -20.140625 L 32.035156 -20.277344 L 32.808594 -20.640625 L 33.128906 -21.554688 L 32.855469 -22.554688 L 32.535156 -23.375 L 32.261719 -24.332031 L 31.761719 -25.0625 L 31.351562 -25.792969 L 30.710938 -26.566406 L 30.210938 -27.433594 L 28.9375 -28.753906 L 25.835938 -30.710938 L 21.460938 -32.171875 L 20.597656 -32.214844 L 19.683594 -32.351562 L 16.859375 -32.398438 L 12.441406 -31.53125 L 9.066406 -29.9375 L 7.746094 -28.9375 L 5.789062 -27.160156 L 4.558594 -25.609375 L 3.691406 -24.289062 L 2.550781 -21.734375 L 2.097656 -19.867188 L 1.640625 -15.949219 L 1.914062 -12.621094 L 2.550781 -10.023438 L 4.511719 -6.058594 L 6.378906 -4.054688 L 8.429688 -2.277344 L 10.390625 -1.230469 L 12.441406 -0.363281 L 13.261719 -0.183594 L 14.171875 0.136719 L 14.992188 0.320312 Z M 15.859375 0.363281 "/></g></g></g><g fill="#000000" fill-opacity="1"><g transform="translate(209.251864, 66.685797)"><g><path d="M 3.328125 -1.277344 L 3.875 -0.410156 L 4.738281 0.0898438 L 5.652344 0.046875 L 7.472656 0.136719 L 8.429688 0.046875 L 10.34375 0.0898438 L 11.300781 -0.457031 L 11.664062 -1.320312 L 11.757812 -2.1875 L 11.664062 -3.191406 L 11.664062 -11.253906 L 12.074219 -12.210938 L 13.03125 -12.804688 L 18.410156 -12.851562 L 19.367188 -12.714844 L 20.1875 -12.714844 L 21.050781 -12.210938 L 21.507812 -11.347656 L 21.554688 -1.277344 L 22.054688 -0.546875 L 23.375 0.046875 L 25.746094 0.046875 L 26.65625 -0.046875 L 28.527344 0.0898438 L 29.390625 -0.5 L 29.9375 -1.277344 L 29.847656 -5.421875 L 29.984375 -6.878906 L 29.847656 -7.609375 L 29.894531 -30.484375 L 29.484375 -31.441406 L 28.570312 -31.804688 L 23.332031 -31.851562 L 22.007812 -31.53125 L 21.554688 -30.4375 L 21.507812 -28.707031 L 21.597656 -27.933594 L 21.507812 -26.066406 L 21.644531 -25.199219 L 21.597656 -21.644531 L 21.097656 -20.734375 L 20.1875 -20.230469 L 19.320312 -20.367188 L 17.542969 -20.1875 L 16.585938 -20.277344 L 15.765625 -20.1875 L 13.078125 -20.230469 L 12.210938 -20.640625 L 11.757812 -21.507812 L 11.710938 -22.511719 L 11.710938 -23.46875 L 11.664062 -24.289062 L 11.710938 -27.84375 L 11.800781 -28.84375 L 11.710938 -30.53125 L 11.300781 -31.394531 L 10.34375 -31.898438 L 9.339844 -31.804688 L 4.832031 -31.898438 L 3.828125 -31.441406 L 3.371094 -30.53125 L 3.28125 -29.527344 L 3.371094 -25.972656 L 3.28125 -25.0625 L 3.464844 -23.195312 L 3.371094 -21.460938 L 3.417969 -20.367188 L 3.328125 -19.457031 L 3.328125 -5.832031 L 3.464844 -5.011719 Z M 3.328125 -1.277344 "/></g></g></g><g fill="#000000" fill-opacity="1"><g transform="translate(254.627392, 66.685797)"><g><path d="M 14.035156 0.136719 L 15.402344 0.136719 L 16.816406 -0.046875 L 17.726562 -0.046875 L 19.046875 -0.457031 L 20.914062 -0.773438 L 23.058594 -1.6875 L 26.109375 -3.738281 L 28.34375 -6.605469 L 28.800781 -7.519531 L 29.347656 -8.246094 L 30.074219 -10.023438 L 30.300781 -10.890625 L 30.484375 -11.847656 L 30.757812 -12.621094 L 30.894531 -13.535156 L 30.894531 -14.492188 L 31.03125 -15.949219 L 30.984375 -17.269531 L 30.347656 -20.871094 L 29.757812 -22.601562 L 29.390625 -23.46875 L 27.84375 -25.882812 L 25.425781 -28.570312 L 23.101562 -30.121094 L 22.238281 -30.621094 L 21.324219 -30.804688 L 20.550781 -31.167969 L 19.59375 -31.394531 L 16.90625 -31.804688 L 6.515625 -31.898438 L 5.695312 -31.761719 L 4.785156 -31.804688 L 3.78125 -31.394531 L 3.371094 -30.4375 L 3.328125 -4.96875 L 3.417969 -4.101562 L 3.417969 -1.777344 L 3.875 -0.363281 L 4.785156 0.0898438 L 5.695312 0 L 11.253906 0.0898438 L 12.167969 -0.046875 Z M 13.898438 -7.335938 L 13.03125 -7.425781 L 11.984375 -7.929688 L 11.621094 -8.792969 L 11.574219 -9.570312 L 11.621094 -11.4375 L 11.4375 -13.671875 L 11.621094 -15.949219 L 11.527344 -22.238281 L 11.621094 -23.011719 L 12.074219 -24.058594 L 13.535156 -24.378906 L 15.449219 -24.425781 L 16.769531 -24.289062 L 18.546875 -23.785156 L 19.367188 -23.375 L 20.050781 -22.875 L 20.734375 -22.238281 L 21.417969 -21.417969 L 21.871094 -20.640625 L 22.28125 -19.820312 L 23.011719 -15.8125 L 22.554688 -12.621094 L 21.78125 -10.9375 L 20.09375 -9.023438 L 18.546875 -8.019531 L 17.226562 -7.609375 L 15.265625 -7.382812 Z M 13.898438 -7.335938 "/></g></g></g><g fill="#000000" fill-opacity="1"><g transform="translate(299.77516, 66.685797)"><g><path d="M 15.265625 0.183594 L 17.089844 0.0898438 L 17.910156 -0.363281 L 18.363281 -1.230469 L 18.363281 -5.742188 L 17.816406 -6.605469 L 16.816406 -7.109375 L 15.859375 -7.109375 L 14.765625 -7.472656 L 14.21875 -8.519531 L 14.355469 -9.386719 L 14.308594 -14.398438 L 14.398438 -15.402344 L 14.21875 -18.683594 L 14.398438 -23.285156 L 14.71875 -24.332031 L 15.722656 -24.742188 L 16.632812 -24.878906 L 17.589844 -25.246094 L 18.042969 -25.972656 L 18.089844 -30.484375 L 17.542969 -31.351562 L 16.722656 -31.851562 L 11.210938 -31.851562 L 10.390625 -31.941406 L 9.476562 -31.761719 L 5.742188 -31.761719 L 4.875 -31.898438 L 3.828125 -31.898438 L 2.917969 -31.441406 L 2.460938 -30.347656 L 2.597656 -26.976562 L 2.507812 -26.109375 L 3.007812 -25.199219 L 4.011719 -24.699219 L 4.921875 -24.699219 L 5.789062 -24.152344 L 6.195312 -22.921875 L 6.332031 -8.929688 L 5.832031 -7.5625 L 2.824219 -6.652344 L 2.324219 -5.832031 L 2.1875 -1.640625 L 2.644531 -0.410156 L 3.554688 0 L 4.421875 0 L 5.285156 -0.0898438 L 6.605469 0.0898438 L 8.019531 0.046875 L 8.929688 -0.046875 L 10.753906 0.136719 L 12.121094 -0.046875 L 14.355469 -0.046875 Z M 15.265625 0.183594 "/></g></g></g><g fill="#000000" fill-opacity="1"><g transform="translate(332.487547, 66.685797)"><g><path d="M 4.738281 0.136719 L 5.652344 0 L 7.425781 0.0898438 L 8.429688 -0.046875 L 9.886719 0.046875 L 11.164062 -0.5 L 11.710938 -1.320312 L 11.574219 -6.105469 L 11.710938 -7.519531 L 11.664062 -8.476562 L 11.757812 -10.117188 L 11.664062 -11.117188 L 11.664062 -12.894531 L 12.074219 -13.304688 L 12.53125 -13.125 L 13.261719 -12.53125 L 13.808594 -11.847656 L 15.675781 -9.980469 L 16.269531 -9.25 L 17.5 -8.066406 L 18.453125 -7.382812 L 19.457031 -7.335938 L 20.367188 -8.019531 L 21.007812 -8.703125 L 21.554688 -9.25 L 22.828125 -10.753906 L 23.46875 -11.210938 L 25.335938 -13.125 L 25.929688 -13.398438 L 26.292969 -12.714844 L 26.203125 -10.207031 L 26.339844 -8.382812 L 26.246094 -6.605469 L 26.339844 -4.921875 L 26.246094 -4.101562 L 26.339844 -2.050781 L 26.339844 -1.367188 L 26.703125 -0.320312 L 27.660156 -0.046875 L 33.171875 0.136719 L 34.128906 -0.363281 L 34.675781 -1.6875 L 34.539062 -4.054688 L 34.632812 -4.96875 L 34.539062 -18.636719 L 34.632812 -19.640625 L 34.585938 -24.152344 L 34.632812 -25.015625 L 34.539062 -26.976562 L 34.585938 -27.75 L 34.539062 -29.621094 L 34.632812 -30.484375 L 34.085938 -31.441406 L 33.128906 -31.941406 L 31.804688 -31.53125 L 30.847656 -30.941406 L 28.9375 -28.9375 L 28.34375 -28.207031 L 27.796875 -27.707031 L 27.160156 -26.886719 L 23.148438 -22.785156 L 22.554688 -22.007812 L 19.777344 -19.183594 L 18.957031 -18.636719 L 18 -19 L 17.453125 -19.777344 L 16.816406 -20.414062 L 15.996094 -21.460938 L 14.992188 -22.375 L 10.84375 -26.976562 L 10.207031 -27.523438 L 9.023438 -28.9375 L 8.292969 -29.574219 L 7.109375 -30.804688 L 6.058594 -31.578125 L 4.785156 -31.941406 L 3.78125 -31.488281 L 3.28125 -30.53125 L 3.417969 -27.75 L 3.28125 -25.972656 L 3.371094 -25.152344 L 3.328125 -17.863281 L 3.417969 -16.953125 L 3.28125 -12.347656 L 3.371094 -11.484375 L 3.328125 -1.414062 L 3.828125 -0.457031 Z M 4.738281 0.136719 "/></g></g></g><g clip-path="url(#a17df46c44)"><path fill="#000000" d="M 86.808594 84.140625 C 93.921875 84.140625 100.148438 82.132812 100.148438 74.625 C 100.148438 67.417969 93.507812 65.347656 86.214844 65.347656 L 64.453125 65.347656 L 64.453125 84.140625 Z M 28.820312 23.449219 L 31.902344 23.449219 C 34.628906 23.449219 34.628906 27.585938 31.902344 27.585938 L 28.820312 27.585938 C 26.09375 27.644531 26.09375 23.449219 28.820312 23.449219 Z M 37.121094 23.449219 L 46.726562 23.449219 C 49.453125 23.449219 49.394531 19.546875 47.082031 19.3125 C 45.066406 19.132812 41.210938 20.136719 41.210938 17.242188 C 41.210938 14.703125 44.175781 15.175781 46.074219 15.175781 L 85.800781 15.175781 C 95.640625 15.175781 103.113281 17.714844 108.152344 22.738281 C 112.183594 26.757812 114.023438 31.601562 114.023438 37.511719 C 114.023438 45.726562 109.929688 52.167969 102.816406 55.953125 C 107.738281 57.84375 111.652344 60.382812 114.496094 63.574219 C 117.460938 66.882812 118.765625 71.375 118.765625 77.167969 C 118.765625 95.191406 102.402344 100.570312 86.746094 100.570312 L 56.746094 100.570312 C 58.167969 99.269531 57.21875 96.964844 55.324219 96.964844 L 43.40625 96.964844 C 40.679688 96.964844 40.679688 92.828125 43.40625 92.828125 L 48.089844 92.828125 C 50.816406 92.828125 50.816406 88.691406 48.089844 88.691406 L 43.40625 88.691406 C 40.679688 88.691406 40.679688 84.554688 43.40625 84.554688 C 48.800781 84.554688 54.136719 84.554688 59.53125 84.554688 C 62.261719 84.554688 62.261719 80.417969 59.53125 80.417969 L 39.667969 80.417969 C 36.941406 80.417969 36.941406 76.28125 39.667969 76.28125 L 49.335938 76.28125 C 52.0625 76.28125 52.0625 72.144531 49.335938 72.144531 L 45.007812 72.144531 C 42.277344 72.144531 42.277344 68.007812 45.007812 68.007812 L 52.0625 68.007812 C 54.789062 68.007812 54.789062 63.871094 52.0625 63.871094 C 48.800781 63.871094 45.480469 63.871094 42.21875 63.871094 C 39.492188 63.871094 39.492188 59.734375 42.21875 59.734375 L 49.214844 59.734375 C 51.941406 59.734375 51.941406 55.597656 49.214844 55.597656 L 40.382812 55.597656 C 37.652344 55.597656 37.652344 51.460938 40.382812 51.460938 C 46.3125 51.460938 46.074219 51.933594 46.074219 49.273438 C 46.074219 48.742188 46.488281 48.269531 47.082031 48.269531 L 57.574219 48.269531 C 60.304688 48.269531 60.304688 44.132812 57.574219 44.132812 L 38.957031 44.132812 C 36.230469 44.132812 36.230469 39.996094 38.957031 39.996094 L 46.074219 39.996094 C 48.800781 39.699219 48.207031 35.976562 46.191406 35.917969 L 38.601562 35.917969 C 35.875 35.917969 35.875 31.78125 38.601562 31.78125 L 58.226562 31.722656 C 60.957031 31.722656 60.957031 27.585938 58.226562 27.585938 L 37.121094 27.644531 C 34.332031 27.644531 34.332031 23.449219 37.121094 23.449219 Z M 35.519531 92.828125 C 37.121094 92.828125 39.964844 92.414062 39.964844 94.894531 C 39.964844 97.378906 37.121094 96.964844 35.519531 96.964844 C 32.792969 97.023438 32.792969 92.828125 35.519531 92.828125 Z M 10.972656 67.949219 L 16.070312 67.949219 C 18.796875 67.949219 18.796875 72.085938 16.070312 72.085938 L 10.972656 72.085938 C 8.246094 72.085938 8.246094 67.949219 10.972656 67.949219 Z M 22.769531 67.949219 L 39.789062 67.949219 C 42.515625 67.949219 42.515625 72.085938 39.789062 72.085938 L 22.769531 72.085938 C 20.042969 72.085938 20.042969 67.949219 22.769531 67.949219 Z M 33.324219 59.675781 L 36.644531 59.675781 C 39.375 59.675781 39.375 63.8125 36.644531 63.8125 L 33.324219 63.8125 C 30.597656 63.8125 30.597656 59.675781 33.324219 59.675781 Z M 35.046875 15.234375 L 38.128906 15.234375 C 40.855469 15.234375 40.855469 19.371094 38.128906 19.371094 L 35.046875 19.371094 C 32.316406 19.371094 32.316406 15.234375 35.046875 15.234375 Z M 22 31.664062 L 32.375 31.664062 C 35.105469 31.664062 35.105469 35.800781 32.375 35.800781 L 22 35.800781 C 19.273438 35.800781 19.273438 31.664062 22 31.664062 Z M 29.292969 84.554688 L 38.128906 84.554688 C 40.855469 84.554688 40.855469 88.691406 38.128906 88.691406 L 29.292969 88.691406 C 26.566406 88.691406 26.566406 84.554688 29.292969 84.554688 Z M 28.640625 51.402344 L 34.570312 51.402344 C 37.296875 51.402344 37.296875 55.539062 34.570312 55.539062 L 28.640625 55.539062 C 25.914062 55.539062 25.914062 51.402344 28.640625 51.402344 Z M 8.183594 39.9375 L 31.488281 39.9375 C 34.214844 39.9375 34.214844 44.074219 31.488281 44.074219 L 8.183594 44.074219 C 5.398438 44.074219 5.398438 39.9375 8.183594 39.9375 Z M 31.488281 76.28125 C 33.265625 76.28125 36.230469 75.808594 36.230469 78.347656 C 36.230469 80.890625 33.265625 80.417969 31.488281 80.417969 C 28.761719 80.417969 28.761719 76.28125 31.488281 76.28125 Z M 81.828125 49.746094 C 88.527344 49.746094 95.40625 48.03125 95.40625 40.703125 C 95.40625 33.789062 89.773438 31.664062 83.070312 31.664062 L 65.402344 31.664062 C 64.867188 31.664062 64.394531 32.074219 64.394531 32.667969 L 64.394531 48.742188 C 64.394531 49.273438 64.808594 49.746094 65.402344 49.746094 Z M 46.429688 35.859375 C 46.371094 35.859375 46.371094 35.859375 46.3125 35.859375 Z M 46.429688 35.859375 " fill-opacity="1" fill-rule="evenodd"/></g></svg>